<svg width="209" height="32" viewBox="0 0 209 32" fill="none" xmlns="http://www.w3.org/2000/svg">
<path fill-rule="evenodd" clip-rule="evenodd" d="M19.2907 31.9392L14.4579 24.8438C15.9857 23.5039 17.2078 21.8523 18.0415 20.0005C18.8752 18.1487 19.3012 16.1398 19.2907 14.1096C19.2881 12.2511 18.918 10.4114 18.2016 8.696C17.4852 6.98062 16.4366 5.42331 15.116 4.11339C13.7954 2.80347 12.2288 1.76671 10.506 1.06258C8.78319 0.358447 6.93808 0.000795073 5.07651 0.0101362H0V32H1.71586V28.2699H5.07651C7.93474 28.2967 10.7318 27.4437 13.0872 25.827L17.1485 31.9088L19.2907 31.9392ZM9.97027 25.5838C8.42447 26.2452 6.75825 26.58 5.07651 26.567H1.71586V1.72315H5.07651C7.52509 1.71412 9.92186 2.42684 11.9664 3.77199C14.011 5.11713 15.6123 7.03485 16.5697 9.28476C17.2379 10.8059 17.5835 12.4486 17.585 14.1096C17.5905 15.7909 17.2447 17.4549 16.5697 18.9952C15.9401 20.4787 15.0261 21.825 13.8792 22.9585C12.7609 24.0806 11.4328 24.9725 9.97027 25.5838ZM41.2111 1.72315V0.0101362H21.9204V32H41.2111V30.287H23.6667V21.0123H35.099V19.2689H23.6667V1.72315H41.2111ZM68.4212 0.0101362L57.2529 24.4891L45.983 0.0101362H44.0844L56.4407 26.6886V32H58.0854V26.6886L70.3198 0.0101362H68.4212ZM87.0114 32L93.0017 16.6538L98.992 32H100.891L113.359 0.0101362H111.531L99.9058 29.6788L88.3313 0.0101362H86.5038L92.0879 14.2616L86.0875 29.6788L74.5334 0.0101362H72.6347L85.1737 32H87.0114ZM132.131 0.0101362C128.961 0.0101419 125.863 0.949 123.227 2.70789C120.592 4.46679 118.538 6.96665 117.327 9.89111C116.115 12.8156 115.799 16.0332 116.42 19.1367C117.041 22.2403 118.57 25.0902 120.813 27.3259C123.057 29.5617 125.915 31.0826 129.025 31.6964C132.134 32.3101 135.357 31.989 138.284 30.7737C141.211 29.5584 143.711 27.5036 145.468 24.8692C147.224 22.2349 148.159 19.1394 148.153 15.9747C148.142 11.7386 146.45 7.67962 143.447 4.68714C140.443 1.69467 136.375 0.0128053 132.131 0.0101362ZM132.131 30.287C129.303 30.287 126.539 29.4501 124.187 27.8821C121.835 26.3142 120.001 24.0854 118.918 21.4775C117.834 18.8696 117.549 15.9996 118.099 13.23C118.648 10.4604 120.008 7.91554 122.005 5.91697C124.003 3.91841 126.549 2.55579 129.322 2.0013C132.095 1.4468 134.97 1.72529 137.585 2.80159C140.199 3.87789 142.436 5.70371 144.011 8.04835C145.587 10.393 146.431 13.1513 146.437 15.9747C146.44 17.8524 146.072 19.7122 145.354 21.4479C144.637 23.1835 143.583 24.761 142.255 26.0902C140.926 27.4193 139.348 28.4741 137.611 29.1942C135.874 29.9143 134.012 30.2856 132.131 30.287ZM166.51 0.0101362C163.34 0.0101419 160.241 0.949 157.605 2.70789C154.97 4.46679 152.917 6.96665 151.705 9.89111C150.493 12.8156 150.178 16.0332 150.798 19.1367C151.419 22.2403 152.948 25.0902 155.192 27.3259C157.435 29.5617 160.293 31.0826 163.403 31.6964C166.513 32.3101 169.735 31.989 172.662 30.7737C175.589 29.5584 178.089 27.5036 179.846 24.8692C181.603 22.2349 182.537 19.1394 182.531 15.9747C182.523 11.7378 180.831 7.67724 177.828 4.68419C174.824 1.69113 170.753 0.0101285 166.51 0.0101362ZM166.51 30.287C163.682 30.287 160.917 29.4501 158.565 27.8821C156.213 26.3142 154.38 24.0854 153.296 21.4775C152.212 18.8696 151.927 15.9996 152.477 13.23C153.026 10.4604 154.386 7.91554 156.383 5.91697C158.381 3.91841 160.927 2.55579 163.7 2.0013C166.473 1.4468 169.349 1.72529 171.963 2.80159C174.578 3.87789 176.814 5.70371 178.389 8.04835C179.965 10.393 180.809 13.1513 180.815 15.9747C180.818 19.7661 179.313 23.4034 176.63 26.0872C173.947 28.771 170.307 30.2816 166.51 30.287ZM192.968 0.0101362H184.785V1.72315V30.287H186.501V1.72315H192.979C194.895 1.70588 196.792 2.09995 198.542 2.87868C200.256 3.54958 201.802 4.58758 203.071 5.91954C204.406 7.18514 205.446 8.72855 206.117 10.4403C206.894 12.1889 207.292 14.0819 207.284 15.9949C207.295 17.9127 206.894 19.8104 206.106 21.5597C205.419 23.2807 204.382 24.8407 203.06 26.1413C201.757 27.4312 200.22 28.4629 198.532 29.1821C196.769 29.913 194.877 30.2852 192.968 30.2768H184.785V31.9899H192.979C197.228 31.9899 201.303 30.3047 204.307 27.305C207.312 24.3054 209 20.237 209 15.9949C209 11.7528 207.312 7.68444 204.307 4.68481C201.303 1.68518 197.228 0 192.979 0L192.968 0.0101362Z" fill="black"/>
</svg>
